<svg width="32" height="32" viewBox="0 0 32 32" fill="none" xmlns="http://www.w3.org/2000/svg">
<g id="icon_line/bell">
<g id="Group 33505">
<path id="Union (Stroke)" fill-rule="evenodd" clip-rule="evenodd" d="M11.669 7.06611C10.7443 8.12034 10.2222 9.64881 10.2222 11.4666V13.7777C10.2222 14.9251 9.70584 15.8784 9.15843 16.6047C8.6578 17.2689 8.03435 17.8653 7.54477 18.3336C7.50365 18.3729 7.46348 18.4113 7.42441 18.4488C6.96642 18.8882 6.66667 19.4848 6.66667 20.1777C6.66667 20.878 7.19152 21.3333 7.7037 21.3333H24.2963C24.8085 21.3333 25.3333 20.878 25.3333 20.1777C25.3333 19.4848 25.0336 18.8882 24.5756 18.4488C24.5365 18.4113 24.4963 18.3729 24.4552 18.3336C23.9656 17.8653 23.3422 17.2689 22.8416 16.6047C22.2942 15.8784 21.7778 14.9251 21.7778 13.7777V11.4666C21.7778 9.64881 21.2557 8.12035 20.331 7.06611C19.4283 6.03706 18.0334 5.33329 16 5.33329C13.9666 5.33329 12.5717 6.03706 11.669 7.06611ZM9.66429 5.30768C11.132 3.63433 13.2927 2.66663 16 2.66663C18.7073 2.66663 20.868 3.63433 22.3357 5.30768C23.7814 6.95585 24.4444 9.16072 24.4444 11.4666V13.7777C24.4444 14.1031 24.5904 14.4945 24.9711 14.9996C25.336 15.4838 25.8097 15.9379 26.333 16.4395C26.3624 16.4677 26.392 16.496 26.4217 16.5245C27.3334 17.3991 28 18.6661 28 20.1777C28 22.2266 26.4024 24 24.2963 24H7.7037C5.59765 24 4 22.2266 4 20.1777C4 18.6661 4.66662 17.3991 5.57829 16.5245C5.60799 16.496 5.63756 16.4677 5.66696 16.4395C6.19026 15.9379 6.66397 15.4838 7.02888 14.9996C7.40955 14.4946 7.55556 14.1031 7.55556 13.7777V11.4666C7.55556 9.16072 8.21863 6.95585 9.66429 5.30768Z" fill="white"/>
<path id="Vector (Stroke)" fill-rule="evenodd" clip-rule="evenodd" d="M12.5906 25.5592C13.2022 25.1491 14.0305 25.3124 14.4406 25.924C14.5731 26.1216 14.779 26.308 15.0558 26.4459C15.3329 26.584 15.6591 26.6619 15.9999 26.6619C16.3406 26.6619 16.6669 26.584 16.944 26.4459C17.2208 26.308 17.4267 26.1216 17.5592 25.924C17.9693 25.3124 18.7976 25.1491 19.4092 25.5592C20.0208 25.9694 20.1841 26.7976 19.7739 27.4092C19.3644 28.0198 18.7924 28.5043 18.1332 28.8327C17.4743 29.161 16.7393 29.3285 15.9999 29.3285C15.2605 29.3285 14.5255 29.161 13.8666 28.8327C13.2074 28.5043 12.6353 28.0198 12.2259 27.4092C11.8157 26.7976 11.979 25.9694 12.5906 25.5592Z" fill="white"/>
</g>
</g>
</svg>
