<svg width="24" height="25" viewBox="0 0 24 25" fill="none" xmlns="http://www.w3.org/2000/svg">
    <g id="icon_line/Category">
    <path id="Vector (Stroke)" fill-rule="evenodd" clip-rule="evenodd" 
        d="M2 6.5C2 4.29086 3.79086 2.5 6 2.5H7C9.20914 2.5 11 4.29086 11 6.5V7.5C11 9.70914 9.20914 11.5 7 11.5H6C3.79086 11.5 2 9.70914 2 7.5V6.5ZM6 4.5C4.89543 4.5 4 5.39543 4 6.5V7.5C4 8.60457 4.89543 9.5 6 9.5H7C8.10457 9.5 9 8.60457 9 7.5V6.5C9 5.39543 8.10457 4.5 7 4.5H6ZM13 6.5C13 4.29086 14.7909 2.5 17 2.5H18C20.2091 2.5 22 4.29086 22 6.5V7.5C22 9.70914 20.2091 11.5 18 11.5H17C14.7909 11.5 13 9.70914 13 7.5V6.5ZM17 4.5C15.8954 4.5 15 5.39543 15 6.5V7.5C15 8.60457 15.8954 9.5 17 9.5H18C19.1046 9.5 20 8.60457 20 7.5V6.5C20 5.39543 19.1046 4.5 18 4.5H17ZM2 17.5C2 15.2909 3.79086 13.5 6 13.5H7C9.20914 13.5 11 15.2909 11 17.5V18.5C11 20.7091 9.20914 22.5 7 22.5H6C3.79086 22.5 2 20.7091 2 18.5V17.5ZM6 15.5C4.89543 15.5 4 16.3954 4 17.5V18.5C4 19.6046 4.89543 20.5 6 20.5H7C8.10457 20.5 9 19.6046 9 18.5V17.5C9 16.3954 8.10457 15.5 7 15.5H6ZM13 17.5C13 15.2909 14.7909 13.5 17 13.5H18C20.2091 13.5 22 15.2909 22 17.5V18.5C22 20.7091 20.2091 22.5 18 22.5H17C14.7909 22.5 13 20.7091 13 18.5V17.5ZM17 15.5C15.8954 15.5 15 16.3954 15 17.5V18.5C15 19.6046 15.8954 20.5 17 20.5H18C19.1046 20.5 20 19.6046 20 18.5V17.5C20 16.3954 19.1046 15.5 18 15.5H17Z" 
        fill="#365787"/>
    </g>
</svg>
