<svg width="24" height="24" viewBox="0 0 24 24" fill="none" xmlns="http://www.w3.org/2000/svg">
<path d="M20.2604 7.42685L20.5 7.28068V7C20.5 6.60218 20.342 6.22065 20.0607 5.93934C19.7794 5.65804 19.3978 5.5 19 5.5H5C4.60217 5.5 4.22064 5.65804 3.93934 5.93934C3.65804 6.22064 3.5 6.60217 3.5 7V7.28068L3.73962 7.42685L11.7396 12.3069L12 12.4657L12.2604 12.3069L20.2604 7.42685ZM4.26068 8.85333L3.5 8.38858V9.28V17C3.5 17.3978 3.65804 17.7794 3.93934 18.0607C4.22065 18.342 4.60218 18.5 5 18.5H19C19.3978 18.5 19.7794 18.342 20.0607 18.0607C20.342 17.7794 20.5 17.3978 20.5 17V9.28V8.39105L19.7403 8.85271L12.2259 13.4193C12.1509 13.4617 12.0662 13.484 11.98 13.484C11.8939 13.484 11.8094 13.4618 11.7345 13.4195L4.26068 8.85333ZM5 4.5H19C19.663 4.5 20.2989 4.76339 20.7678 5.23223C21.2366 5.70107 21.5 6.33696 21.5 7V17C21.5 17.663 21.2366 18.2989 20.7678 18.7678C20.2989 19.2366 19.663 19.5 19 19.5H5C4.33696 19.5 3.70107 19.2366 3.23223 18.7678C2.76339 18.2989 2.5 17.663 2.5 17V7C2.5 6.33696 2.76339 5.70107 3.23223 5.23223C3.70107 4.76339 4.33696 4.5 5 4.5Z" fill="#197BBD" stroke="#197BBD"/>
</svg>
