<svg width="24" height="25" viewBox="0 0 24 25" fill="none" xmlns="http://www.w3.org/2000/svg">
<g id="icon_filled/home">
<path id="Union" fill-rule="evenodd" clip-rule="evenodd" d="M20.479 8.07827L15.093 3.62502C13.2787 2.12499 10.7213 2.12499 8.90703 3.62502L3.52097 8.07827C2.55059 8.88059 2 10.0971 2 11.3663V19.3739C2 21.0419 3.28643 22.5 5 22.5H7C8.65685 22.5 10 21.1569 10 19.5V16.1848C10 15.5044 10.5044 15.0587 11 15.0587H13C13.4956 15.0587 14 15.5044 14 16.1848V19.5C14 21.1569 15.3431 22.5 17 22.5H19C20.7136 22.5 22 21.0419 22 19.3739V11.3663C22 10.0971 21.4494 8.88059 20.479 8.07827Z" fill="white"/>
</g>
</svg>
