<svg width="25" height="24" viewBox="0 0 25 24" fill="none" xmlns="http://www.w3.org/2000/svg">
<g id="icon_line/Share">
<path id="Vector (Stroke)" fill-rule="evenodd" clip-rule="evenodd" d="M2.79289 12.7071C2.40237 12.3166 2.40237 11.6834 2.79289 11.2929L6.79289 7.29289C7.18342 6.90237 7.81658 6.90237 8.20711 7.29289C8.59763 7.68342 8.59763 8.31658 8.20711 8.70711L4.91421 12L8.20711 15.2929C8.59763 15.6834 8.59763 16.3166 8.20711 16.7071C7.81658 17.0976 7.18342 17.0976 6.79289 16.7071L2.79289 12.7071Z" fill="white"/>
<path id="Vector (Stroke)_2" fill-rule="evenodd" clip-rule="evenodd" d="M2.5 12C2.5 11.4477 2.94772 11 3.5 11L15.5 11C16.0523 11 16.5 11.4477 16.5 12C16.5 12.5523 16.0523 13 15.5 13L3.5 13C2.94772 13 2.5 12.5523 2.5 12Z" fill="white"/>
<path id="Rectangle 12 (Stroke)" fill-rule="evenodd" clip-rule="evenodd" d="M12.5 19C12.5 18.4477 12.9477 18 13.5 18L18.5 18C19.6046 18 20.5 17.1046 20.5 16L20.5 8C20.5 6.89543 19.6046 6 18.5 6L13.5 6C12.9477 6 12.5 5.55229 12.5 5C12.5 4.44771 12.9477 4 13.5 4L18.5 4C20.7091 4 22.5 5.79086 22.5 8L22.5 16C22.5 18.2091 20.7091 20 18.5 20L13.5 20C12.9477 20 12.5 19.5523 12.5 19Z" fill="white"/>
</g>
</svg>
