<svg width="32" height="32" viewBox="0 0 32 32" fill="none" xmlns="http://www.w3.org/2000/svg">
<g id="icon_line/Message">
<path id="Vector (Stroke)" fill-rule="evenodd" clip-rule="evenodd" d="M16.0001 5.33329C10.109 5.33329 5.33341 10.1089 5.33341 16C5.33341 18.2561 6.03241 20.3451 7.22563 22.0671C7.62052 22.637 7.71572 23.3978 7.40292 24.0708L6.19647 26.6666H16.0001C21.8911 26.6666 26.6667 21.891 26.6667 16C26.6667 10.1089 21.8911 5.33329 16.0001 5.33329ZM2.66675 16C2.66675 8.63616 8.63628 2.66663 16.0001 2.66663C23.3639 2.66663 29.3334 8.63616 29.3334 16C29.3334 23.3638 23.3639 29.3333 16.0001 29.3333H5.14887C3.63657 29.3333 2.6799 27.7244 3.37882 26.402L4.82908 23.2817C3.4617 21.1878 2.66675 18.6849 2.66675 16Z" fill="white"/>
<g id="Group 33490">
<path id="Vector 5 (Stroke)" fill-rule="evenodd" clip-rule="evenodd" d="M10.6667 18.6667C10.6667 17.9303 11.2637 17.3334 12.0001 17.3334H20.0001C20.7365 17.3334 21.3334 17.9303 21.3334 18.6667C21.3334 19.4031 20.7365 20 20.0001 20H12.0001C11.2637 20 10.6667 19.4031 10.6667 18.6667Z" fill="white"/>
</g>
<g id="Group 33491">
<path id="Vector 5 (Stroke)_2" fill-rule="evenodd" clip-rule="evenodd" d="M10.6667 13.3333C10.6667 12.597 11.2637 12 12.0001 12H14.6667C15.4031 12 16.0001 12.597 16.0001 13.3333C16.0001 14.0697 15.4031 14.6667 14.6667 14.6667H12.0001C11.2637 14.6667 10.6667 14.0697 10.6667 13.3333Z" fill="white"/>
</g>
</g>
</svg>
