<svg width="24" height="25" viewBox="0 0 24 25" fill="none" xmlns="http://www.w3.org/2000/svg">
<g id="icon_line/user_circle">
<path id="Rectangle 14 (Stroke)" fill-rule="evenodd" clip-rule="evenodd" d="M2 12.5C2 6.97715 6.47715 2.5 12 2.5C17.5228 2.5 22 6.97715 22 12.5C22 18.0228 17.5228 22.5 12 22.5C6.47715 22.5 2 18.0228 2 12.5ZM12 4.5C7.58172 4.5 4 8.08172 4 12.5C4 16.9183 7.58172 20.5 12 20.5C16.4183 20.5 20 16.9183 20 12.5C20 8.08172 16.4183 4.5 12 4.5Z" fill="white"/>
<path id="Ellipse 11 (Stroke)" fill-rule="evenodd" clip-rule="evenodd" d="M12 8.5C10.8954 8.5 10 9.39543 10 10.5C10 11.6046 10.8954 12.5 12 12.5C13.1046 12.5 14 11.6046 14 10.5C14 9.39543 13.1046 8.5 12 8.5ZM8 10.5C8 8.29086 9.79086 6.5 12 6.5C14.2091 6.5 16 8.29086 16 10.5C16 12.7091 14.2091 14.5 12 14.5C9.79086 14.5 8 12.7091 8 10.5Z" fill="white"/>
<path id="Ellipse 12 (Stroke)" fill-rule="evenodd" clip-rule="evenodd" d="M12 17.5C9.90941 17.5 8.03384 18.4152 6.74972 19.8701L5.25024 18.5466C6.89791 16.6798 9.31178 15.5 12 15.5C14.6882 15.5 17.1021 16.6798 18.7497 18.5466L17.2502 19.8701C15.9661 18.4152 14.0906 17.5 12 17.5Z" fill="white"/>
</g>
</svg>
