<svg width="24" height="24" viewBox="0 0 24 24" fill="none" xmlns="http://www.w3.org/2000/svg">
<path d="M3.18999 16.5425L3.18995 16.5426L3.19924 16.5462C3.25721 16.5687 3.31046 16.6018 3.35627 16.6437C3.39824 16.6895 3.43132 16.7428 3.4538 16.8008L3.45362 16.8008L3.45908 16.8138C3.49737 16.9049 3.50783 17.0052 3.48915 17.1022C3.47129 17.1949 3.4276 17.2805 3.36323 17.3493C3.3108 17.3949 3.25138 17.4318 3.1872 17.4587L3.18716 17.4586L3.17786 17.4627C3.12183 17.4874 3.06125 17.5002 2.99999 17.5002C2.93873 17.5002 2.87815 17.4874 2.82212 17.4627L2.82216 17.4626L2.81278 17.4587C2.7486 17.4318 2.68917 17.3949 2.63675 17.3493C2.57238 17.2805 2.52868 17.1949 2.51083 17.1022C2.49214 17.0052 2.50261 16.9049 2.5409 16.8138L2.54108 16.8139L2.54617 16.8008C2.56865 16.7428 2.60174 16.6895 2.64371 16.6437C2.68951 16.6018 2.74276 16.5687 2.80074 16.5462L2.80078 16.5463L2.80999 16.5425C2.93172 16.4925 3.06826 16.4925 3.18999 16.5425ZM2.81278 11.5413L2.8138 11.5409C2.90486 11.5026 3.00522 11.4922 3.10221 11.5108C3.19687 11.5291 3.28419 11.5743 3.3537 11.6409C3.39689 11.6874 3.43087 11.7416 3.4538 11.8008L3.45799 11.8115L3.46267 11.8221C3.48743 11.8782 3.50022 11.9387 3.50022 12C3.50022 12.0613 3.48743 12.1218 3.46267 12.1779L3.46257 12.1778L3.45865 12.1872C3.43311 12.2483 3.39838 12.3052 3.35572 12.3557C3.30515 12.3984 3.24833 12.4331 3.1872 12.4587L3.18716 12.4586L3.17786 12.4627C3.12183 12.4874 3.06125 12.5002 2.99999 12.5002C2.93873 12.5002 2.87815 12.4874 2.82212 12.4627L2.82216 12.4626L2.81278 12.4587C2.75165 12.4331 2.69483 12.3984 2.64426 12.3557C2.6016 12.3052 2.56687 12.2483 2.54133 12.1872L2.54142 12.1872L2.53731 12.1779C2.51255 12.1218 2.49976 12.0613 2.49976 12C2.49976 11.9387 2.51255 11.8782 2.53731 11.8221L2.54199 11.8115L2.54617 11.8008C2.56793 11.7446 2.59963 11.6929 2.63971 11.6481C2.69141 11.6037 2.74981 11.5677 2.81278 11.5413ZM2.28999 7.71C2.38719 7.79833 2.4988 7.86936 2.61999 7.92C2.8021 7.99658 3.00281 8.0175 3.1968 7.98013C3.39079 7.94275 3.56936 7.84876 3.70999 7.71H2.28999ZM3.34928 7.36324C3.28051 7.42761 3.19488 7.4713 3.10221 7.48916C3.00522 7.50784 2.90486 7.49738 2.8138 7.45909L2.81278 7.45866C2.75165 7.43312 2.69482 7.39839 2.64426 7.35573C2.60159 7.30516 2.56687 7.24834 2.54133 7.18721L2.54142 7.18717L2.53731 7.17787C2.51255 7.12184 2.49976 7.06126 2.49976 7C2.49976 6.93874 2.51255 6.87816 2.53731 6.82213L2.53741 6.82217L2.54133 6.81279C2.56814 6.74861 2.60508 6.68918 2.65069 6.63676C2.71946 6.57239 2.8051 6.5287 2.89777 6.51084C2.99476 6.49216 3.09512 6.50262 3.18617 6.54091L3.1861 6.54109L3.19923 6.54618C3.25536 6.56795 3.30705 6.59964 3.35184 6.63972C3.39628 6.69142 3.43234 6.74982 3.45865 6.81279L3.45856 6.81283L3.46267 6.82213C3.48743 6.87816 3.50022 6.93874 3.50022 7C3.50022 7.06126 3.48743 7.12184 3.46267 7.17787L3.46257 7.17783L3.45865 7.18721C3.43183 7.25139 3.3949 7.31082 3.34928 7.36324ZM21 7.5H6.99999C6.86738 7.5 6.7402 7.44732 6.64644 7.35355C6.55267 7.25978 6.49999 7.13261 6.49999 7C6.49999 6.86739 6.55267 6.74022 6.64644 6.64645C6.7402 6.55268 6.86738 6.5 6.99999 6.5H21C21.1326 6.5 21.2598 6.55268 21.3535 6.64645C21.4473 6.74021 21.5 6.86739 21.5 7C21.5 7.13261 21.4473 7.25979 21.3535 7.35355C21.2598 7.44732 21.1326 7.5 21 7.5ZM6.99999 11.5H21C21.1326 11.5 21.2598 11.5527 21.3535 11.6464C21.4473 11.7402 21.5 11.8674 21.5 12C21.5 12.1326 21.4473 12.2598 21.3535 12.3536C21.2598 12.4473 21.1326 12.5 21 12.5H6.99999C6.86738 12.5 6.7402 12.4473 6.64644 12.3536C6.55267 12.2598 6.49999 12.1326 6.49999 12C6.49999 11.8674 6.55267 11.7402 6.64644 11.6464C6.7402 11.5527 6.86738 11.5 6.99999 11.5ZM6.99999 16.5H21C21.1326 16.5 21.2598 16.5527 21.3535 16.6464C21.4473 16.7402 21.5 16.8674 21.5 17C21.5 17.1326 21.4473 17.2598 21.3535 17.3536C21.2598 17.4473 21.1326 17.5 21 17.5H6.99999C6.86738 17.5 6.7402 17.4473 6.64644 17.3536C6.55267 17.2598 6.49999 17.1326 6.49999 17C6.49999 16.8674 6.55267 16.7402 6.64644 16.6464C6.7402 16.5527 6.86738 16.5 6.99999 16.5Z" fill="black" stroke="black"/>
</svg>
